<svg width="24" height="24" viewBox="0 0 24 24" fill="none" xmlns="http://www.w3.org/2000/svg">
<g clip-path="url(#clip0_120_164)">
<path d="M24 12.073C24 5.405 18.627 0 12 0C5.373 0 0 5.405 0 12.073C0 18.1 4.388 23.094 10.125 24V15.564H7.078V12.073H10.125V9.413C10.125 6.387 11.917 4.716 14.658 4.716C15.97 4.716 17.344 4.953 17.344 4.953V7.928H15.83C14.34 7.928 13.875 8.84 13.875 9.775V12.073H17.203L16.671 15.564H13.875V24C19.612 23.094 24 18.1 24 12.073Z" fill="white"/>
</g>
<defs>
<clipPath id="clip0_120_164">
<rect width="24" height="24" fill="white"/>
</clipPath>
</defs>
</svg>
