<svg width="16" height="16" viewBox="0 0 16 16" fill="none" xmlns="http://www.w3.org/2000/svg">
<path fill-rule="evenodd" clip-rule="evenodd" d="M4.79998 1.59998C4.5878 1.59998 4.38432 1.68426 4.23429 1.83429C4.08426 1.98432 3.99998 2.1878 3.99998 2.39998V3.19998H3.19998C2.77563 3.19998 2.36866 3.36855 2.0686 3.6686C1.76855 3.96866 1.59998 4.37563 1.59998 4.79998V12.8C1.59998 13.2243 1.76855 13.6313 2.0686 13.9313C2.36866 14.2314 2.77563 14.4 3.19998 14.4H12.8C13.2243 14.4 13.6313 14.2314 13.9313 13.9313C14.2314 13.6313 14.4 13.2243 14.4 12.8V4.79998C14.4 4.37563 14.2314 3.96866 13.9313 3.6686C13.6313 3.36855 13.2243 3.19998 12.8 3.19998H12V2.39998C12 2.1878 11.9157 1.98432 11.7657 1.83429C11.6156 1.68426 11.4121 1.59998 11.2 1.59998C10.9878 1.59998 10.7843 1.68426 10.6343 1.83429C10.4843 1.98432 10.4 2.1878 10.4 2.39998V3.19998H5.59998V2.39998C5.59998 2.1878 5.51569 1.98432 5.36566 1.83429C5.21563 1.68426 5.01215 1.59998 4.79998 1.59998ZM4.79998 5.59998C4.5878 5.59998 4.38432 5.68426 4.23429 5.83429C4.08426 5.98432 3.99998 6.1878 3.99998 6.39998C3.99998 6.61215 4.08426 6.81563 4.23429 6.96566C4.38432 7.11569 4.5878 7.19998 4.79998 7.19998H11.2C11.4121 7.19998 11.6156 7.11569 11.7657 6.96566C11.9157 6.81563 12 6.61215 12 6.39998C12 6.1878 11.9157 5.98432 11.7657 5.83429C11.6156 5.68426 11.4121 5.59998 11.2 5.59998H4.79998Z" fill="black"/>
</svg>
