<svg width="32" height="32" viewBox="0 0 32 32" fill="none" xmlns="http://www.w3.org/2000/svg">
<path d="M4 8C4 5.79086 5.79086 4 8 4H24C26.2091 4 28 5.79086 28 8V20C28 22.2091 26.2091 24 24 24H8C5.79086 24 4 22.2091 4 20V8Z" stroke="white" stroke-width="2"/>
<path d="M4 12H28" stroke="white" stroke-width="2"/>
<path d="M8 8V12" stroke="white" stroke-width="2"/>
<path d="M12 8V12" stroke="white" stroke-width="2"/>
<path d="M16 8V12" stroke="white" stroke-width="2"/>
<path d="M20 8V12" stroke="white" stroke-width="2"/>
<path d="M24 8V12" stroke="white" stroke-width="2"/>
<path d="M10 20C11.1046 20 12 19.1046 12 18C12 16.8954 11.1046 16 10 16C8.89543 16 8 16.8954 8 18C8 19.1046 8.89543 20 10 20Z" fill="white"/>
<path d="M16 20C17.1046 20 18 19.1046 18 18C18 16.8954 17.1046 16 16 16C14.8954 16 14 16.8954 14 18C14 19.1046 14.8954 20 16 20Z" fill="white"/>
<path d="M22 20C23.1046 20 24 19.1046 24 18C24 16.8954 23.1046 16 22 16C20.8954 16 20 16.8954 20 18C20 19.1046 20.8954 20 22 20Z" fill="white"/>
</svg>
