<svg width="32" height="32" viewBox="0 0 32 32" fill="none" xmlns="http://www.w3.org/2000/svg">
<path d="M16 28C22.6274 28 28 22.6274 28 16C28 9.37258 22.6274 4 16 4C9.37258 4 4 9.37258 4 16C4 22.6274 9.37258 28 16 28Z" stroke="white" stroke-width="2"/>
<path d="M20 12L14 18L12 16" stroke="white" stroke-width="2" stroke-linecap="round" stroke-linejoin="round"/>
<path d="M6 16H2" stroke="white" stroke-width="2" stroke-linecap="round"/>
<path d="M30 16H26" stroke="white" stroke-width="2" stroke-linecap="round"/>
<path d="M16 6V2" stroke="white" stroke-width="2" stroke-linecap="round"/>
<path d="M16 30V26" stroke="white" stroke-width="2" stroke-linecap="round"/>
<path d="M25.66 6.34009L23.54 8.46009" stroke="white" stroke-width="2" stroke-linecap="round"/>
<path d="M8.46003 23.54L6.34003 25.66" stroke="white" stroke-width="2" stroke-linecap="round"/>
<path d="M25.66 25.66L23.54 23.54" stroke="white" stroke-width="2" stroke-linecap="round"/>
<path d="M8.46003 8.46009L6.34003 6.34009" stroke="white" stroke-width="2" stroke-linecap="round"/>
</svg>
