<svg width="56" height="56" viewBox="0 0 56 56" fill="none" xmlns="http://www.w3.org/2000/svg">
<path d="M28 14C31.3137 14 34 11.3137 34 8C34 4.68629 31.3137 2 28 2C24.6863 2 22 4.68629 22 8C22 11.3137 24.6863 14 28 14Z" stroke="white" stroke-width="2.5"/>
<path d="M18 46C18 40.6863 22.6863 36 28 36C33.3137 36 38 40.6863 38 46V50C38 51.1046 37.1046 52 36 52H20C18.8954 52 18 51.1046 18 50V46Z" stroke="white" stroke-width="2.5"/>
<path d="M8 28H48" stroke="white" stroke-width="2.5" stroke-linecap="round"/>
<path d="M28 8V48" stroke="white" stroke-width="2.5" stroke-linecap="round"/>
</svg>
