<svg width="16" height="16" viewBox="0 0 16 16" fill="none" xmlns="http://www.w3.org/2000/svg">
<path fill-rule="evenodd" clip-rule="evenodd" d="M4.04 3.24002C5.09026 2.18976 6.51471 1.59973 8 1.59973C9.48529 1.59973 10.9097 2.18976 11.96 3.24002C13.0103 4.29027 13.6003 5.71473 13.6003 7.20002C13.6003 8.68531 13.0103 10.1098 11.96 11.16L8 15.12L4.04 11.16C3.51993 10.64 3.10739 10.0226 2.82593 9.34318C2.54446 8.66372 2.3996 7.93547 2.3996 7.20002C2.3996 6.46457 2.54446 5.73632 2.82593 5.05686C3.10739 4.3774 3.51993 3.76003 4.04 3.24002ZM8 8.80002C8.42435 8.80002 8.83131 8.63144 9.13137 8.33139C9.43143 8.03133 9.6 7.62436 9.6 7.20002C9.6 6.77567 9.43143 6.3687 9.13137 6.06865C8.83131 5.76859 8.42435 5.60002 8 5.60002C7.57565 5.60002 7.16869 5.76859 6.86863 6.06865C6.56857 6.3687 6.4 6.77567 6.4 7.20002C6.4 7.62436 6.56857 8.03133 6.86863 8.33139C7.16869 8.63144 7.57565 8.80002 8 8.80002Z" fill="black"/>
</svg>
